<?xml version="1.0" encoding="UTF-8" standalone="no"?>
<svg
   xmlns:dc="http://purl.org/dc/elements/1.1/"
   xmlns:cc="http://creativecommons.org/ns#"
   xmlns:rdf="http://www.w3.org/1999/02/22-rdf-syntax-ns#"
   xmlns:svg="http://www.w3.org/2000/svg"
   xmlns="http://www.w3.org/2000/svg"
   viewBox="0 0 4000 2666.6667"
   height="2666.6667"
   width="4000"
   xml:space="preserve"
   id="svg2"
   version="1.1"><metadata
     id="metadata8"><rdf:RDF><cc:Work
         rdf:about=""><dc:format>image/svg+xml</dc:format><dc:type
           rdf:resource="http://purl.org/dc/dcmitype/StillImage" /></cc:Work></rdf:RDF></metadata><defs
     id="defs6"><clipPath
       id="clipPath150"
       clipPathUnits="userSpaceOnUse"><path
         id="path148"
         d="m 16836.4,10910 c -121.5,0 -220,192.6 -220,430 0,237.5 98.5,430 220,430 121.5,0 220,-192.5 220,-430 0,-237.4 -98.5,-430 -220,-430" /></clipPath><clipPath
       id="clipPath318"
       clipPathUnits="userSpaceOnUse"><path
         id="path316"
         d="m 9158.39,5182.1 c 10.73,122.3 17.86,239.7 21.44,350.9 l 867.37,163.4 c -9.4,-56.3 -18.3,-112.1 -28.6,-167.4 v 0 l -487,-8.5 c 21.43,-104.5 41.97,-210.7 61.16,-318.7 v 0 l -434.37,-19.7" /></clipPath></defs><g
     transform="matrix(1.3333333,0,0,-1.3333333,0,2666.6667)"
     id="g10"><g
       transform="scale(0.1)"
       id="g12"><g
         transform="scale(1.84049)"
         id="g14"><path
           id="path16"
           style="fill:#ffffff;fill-opacity:1;fill-rule:nonzero;stroke:none"
           d="M 16300,0 H 0 V 10866.7 H 16300 V 0" /></g><g
         transform="scale(1.55997)"
         id="g18"><path
           id="path20"
           style="fill:#f0f6ff;fill-opacity:1;fill-rule:nonzero;stroke:none"
           d="m 15772.6,1153.87 h -1917.5 v 149.75 0 506.22 h -846.2 c -24.4,58.08 -48.8,116.22 -73.2,174.37 -115.3,274.49 -230.5,549.05 -345.8,823.6 -80.7,192.06 -165.6,401.49 -339.5,528.67 -103.1,75.32 -227.1,108.4 -352.2,108.4 -98,0 -196.7,-20.26 -286.8,-56.29 -143.7,-57.56 -268,-150.77 -378.4,-258.53 h -463.6 v 0 H 9175.05 8271.9 v -660.14 h -899.25 v -660.08 h -650.79 c -15.06,525.78 -45.13,1044.64 -115.51,1545.55 -8.59,64.1 -18.33,127.95 -28.66,191.47 l -155.38,-2.56 c 6.6,35.45 12.3,71.22 18.33,107.31 v 0 0 l -556.02,-104.75 c -2.29,-71.28 -6.86,-146.54 -13.74,-224.93 -45.49,-533.41 -186.86,-1222.53 -332.81,-1919.02 h 362.58 c 128.2,394.05 244.38,811.3 345.97,1257.14 v 0.58 0 -0.58 c 31.93,-273.79 57.21,-558.66 78.55,-850.21 h -235.75 v -506.22 h -0.07 V 1153.87 H 4122.32 c -555.51,875.92 -734.93,2000.81 -384.61,2981.73 472.53,1323.16 1856.48,2238.63 3249.86,2238.63 206.29,0 412.9,-20.07 616.68,-61.86 337,-69.11 661.1,-188.72 979.38,-329.37 l 15.38,-192.5 c 37.19,-464.11 424.63,-821.81 890.28,-821.81 h 960.81 c 117.7,0 230.3,22.82 333.6,64.42 226.6,-55.32 457.9,-87.95 696,-87.95 8,0 16.1,0.06 24.1,0.13 786.5,7.24 1544.9,380.78 2323.9,380.78 71,0 142.3,-3.14 213.7,-9.87 905.2,-85.97 1688.7,-792.01 1980.9,-1653.05 277.7,-818.03 146.8,-1739.84 -249.7,-2509.28 M 3614.85,3682.32 c -1.61,-8.4 -3.25,-16.8 -4.78,-25.26 337.16,-110.32 691.15,-168.79 1045.89,-168.79 162.15,0 324.45,12.18 485.39,37.25 661.47,103.01 1279.35,422.89 1764.11,882.52 l 64.29,-219.88 155.97,36.92 c 2.56,0.58 5.19,1.16 7.43,1.99 v 0 c 45.26,12.63 84.75,40.96 110.78,80.13 l 19.16,28.66 c 2.89,4.87 6.03,9.42 8.85,14.29 v 0 0 c 197.18,316.22 313.91,584.31 277.25,599.69 -5.83,2.44 -10.71,3.27 -14.75,3.27 -9.16,0 -13.78,-4.29 -13.78,-4.29 0,0 1.16,27.18 -6.28,34.61 -2.82,2.76 -6.03,3.85 -9.3,3.85 -13.78,0 -29.68,-19.62 -29.68,-19.62 0,0 7.18,35.84 -19.16,35.84 -26.29,0 -109.56,-126.23 -109.56,-126.23 0,0 -2.5,13.79 -6.66,30.65 143.53,201.92 264.62,419.56 358.72,648.99 17.82,43.46 34.55,87.24 50.39,131.28 25.77,-20.13 53.27,-38.91 82.95,-56.6 l 17.75,155.32 c -23.39,3.08 -44.1,7.82 -62.56,14.17 45.7,143.97 81.35,290.45 108.46,438.59 -8.52,2.51 -16.98,5 -25.51,7.38 -26.86,-147 -61.73,-292.7 -106.99,-436.17 -93.14,44.36 -127.38,141.99 -208.85,301.42 l -70.58,-100.64 c 76.09,-126.61 148.4,-226.22 244.11,-306.35 -96.8,-272.38 -231.67,-529.89 -397.32,-765.98 -5.83,15.83 -12.95,28.52 -20.7,28.52 -0.51,0 -1.03,-0.06 -1.61,-0.19 -11.09,-2.37 -16.47,-45.25 -19.03,-85.96 -134.36,-183.08 -287.44,-352.57 -455.72,-505.33 -416.99,-378.66 -928.31,-655.78 -1477.89,-783.29 -229.67,-53.27 -464.56,-78.97 -699.48,-78.97 -347.63,0 -695.38,56.35 -1026.65,163.21 -4.92,1.54 -9.75,3.39 -14.66,5 m 1856.55,759.11 c 4.29,-4.29 8.58,-8.59 13.16,-12.56 l 205.75,-184.04 148.52,252.12 c -57.8,34.94 -115.04,80.38 -173.42,139.36 l -178.85,438.72 c 0,0 51.22,151.61 23.75,157.38 -1.01,0.19 -2.03,0.32 -3.06,0.32 -27.08,0 -61.33,-73.01 -61.33,-73.01 0,0 -33.48,151.35 -58.37,152.82 -1.9,0.06 -3.69,0.13 -5.41,0.13 -20.98,0 -28.07,-6.92 -28.07,-30.19 0,0 -9.99,6.47 -20.11,6.47 -9.32,0 -18.75,-5.51 -20.53,-26.79 0,0 -10.36,4.42 -22.02,4.42 -13.31,0 -28.29,-5.77 -31.49,-30.45 -4.3,-34.36 81.27,-424.95 126.48,-625.59 v 0 0 c 1.43,-7.69 3.15,-15.45 4.87,-22.63 12.3,-55.51 40.34,-106.15 80.13,-146.48 v 0 m 7509.9,-2631.59 h -409.4 v 660.08 h -899.3 v 660.14 h -404 c 57.5,53.78 118.6,103.21 184,146.09 131.5,86.22 291.5,143.79 449.9,143.79 88.3,0 176.1,-17.88 258.2,-58.78 209.3,-104.24 308.6,-332.64 394.5,-536.68 107.4,-254.81 214.2,-509.82 321.2,-764.76 34.9,-83.27 69.9,-166.61 104.9,-249.88 M 6919.17,4421.11 c 133.66,128.15 256.93,266.87 368.09,414.69 -0.39,-16.54 -0.39,-27.76 -0.39,-27.76 l -193.21,-364.88 c -59.1,-7.82 -117.43,-15.12 -174.49,-22.05" /></g><path
         id="path22"
         style="fill:#ffffff;fill-opacity:1;fill-rule:nonzero;stroke:none"
         d="m 8020.35,5499.7 c 1756.66,273.6 3316.55,1527.6 3989.45,3168.9 141.4,345.1 240.9,701.9 307.3,1065.1 -13.3,3.9 -26.5,7.8 -39.8,11.5 -44.6,-244.1 -103.4,-485.9 -180.7,-723.6 C 11822.5,8178.7 11315.2,7421.7 10660.1,6827 10009.6,6236.3 9211.96,5804 8354.63,5605.1 7466.18,5399 6527.92,5457.1 5661.92,5736.5 c -7.67,2.4 -15.21,5.3 -22.87,7.8 -2.5,-13.1 -5.06,-26.2 -7.45,-39.4 766.38,-250.8 1588.47,-329.8 2388.75,-205.2" /><g
         transform="scale(1.12604)"
         id="g24"><path
           id="path26"
           style="fill:#ffffff;fill-opacity:1;fill-rule:nonzero;stroke:none"
           d="m 9657.06,3830.87 c 1164.54,-155.77 2360.84,-238.98 3511.54,55.68 522,133.65 1026.2,346.08 1468.2,656.64 443.8,311.71 811.2,719.16 1102.5,1175.01 232.9,364.46 414.7,752.28 560.7,1153.96 -12.9,-1.34 -25.8,-2.76 -38.5,-3.91 -99.8,-271.57 -216.2,-537.28 -354.7,-794.56 -268.6,-498.47 -616.2,-958.05 -1053.4,-1320.74 -431,-357.54 -940.4,-609.39 -1474.9,-771.02 -1129.2,-341.46 -2325,-290.75 -3481.75,-146.62 -1265.52,157.72 -2532.09,424.76 -3813.74,367.66 -383.02,-17.05 -770.48,-62.7 -1149.13,-145.55 0.54,-12.35 0.82,-24.78 1.44,-37.12 308.75,68.47 623.47,111.98 936.7,134.8 1270.47,92.36 2531.46,-156.65 3785.04,-324.23" /></g><g
         transform="scale(1.54019)"
         id="g28"><path
           id="path30"
           style="fill:#ffffff;fill-opacity:1;fill-rule:nonzero;stroke:none"
           d="m 15392.5,2189.15 c -327.2,71.74 -650,171.79 -948.6,325.47 -278.2,143.23 -540.4,334.05 -726.1,589.02 -190.9,262.05 -282.1,579.74 -253.6,903.2 52.2,594.21 439.6,1069.09 940.3,1351.53 -12.8,2.4 -25.7,4.54 -38.5,6.68 -420.3,-242.83 -755.3,-614.79 -883.4,-1103.76 -81.7,-311.84 -62.9,-642.84 74,-936.38 131.2,-281.52 356.9,-507.01 612.2,-678.68 269.5,-181.15 574.2,-308.14 885.3,-398.07 373.4,-107.97 759.1,-173.68 1146.9,-198.48 31.1,-2.01 62.2,-3.25 93.3,-4.67 1.9,8.57 3.9,17.14 5.7,25.71 -305.1,13.96 -609.1,52.98 -907.5,118.43" /></g><g
         transform="scale(1.01448)"
         id="g32"><path
           id="path34"
           style="fill:#ffffff;fill-opacity:1;fill-rule:nonzero;stroke:none"
           d="m 13032.7,8588.5 c 89.6,189.55 190,373.58 300,551.51 -12.1,5.52 -24.2,11.04 -36.3,16.56 -78.9,-127.85 -152.8,-258.75 -221.3,-392.71 -170.3,-333.37 -307.9,-683.8 -408.2,-1044.67 -109.5,-394.19 -202,-827.41 -100.8,-1233.14 78.2,-313.26 283.4,-605.73 595.2,-718.39 352.8,-127.46 736,4.83 1048.3,177.92 340.4,188.57 652.1,440.42 947.1,692.87 296.8,253.91 576.7,527.55 837.6,818.24 105.1,117.11 207,237.17 305.7,359.59 -13.9,4.14 -27.9,8.29 -41.9,12.62 -477,-589.66 -1028.2,-1118.99 -1640.9,-1568.18 -314.1,-230.37 -668,-463.39 -1066,-500.26 -395.5,-36.67 -726.3,190.84 -882.9,546.98 -173.6,394.88 -102.9,844.76 -3.3,1248.91 87.6,355.16 211.3,701.54 367.7,1032.15" /></g><g
         transform="scale(1.54648)"
         id="g36"><path
           id="path38"
           style="fill:#ffffff;fill-opacity:1;fill-rule:nonzero;stroke:none"
           d="m 15517.1,2856.16 c 268.1,-14.29 537.2,52.31 782.9,169.22 -0.6,7.82 -1.2,15.65 -1.9,23.41 -203.6,-96.42 -423.8,-155.84 -653.1,-166.9 -257.1,-12.41 -519.7,54.9 -711.2,233.69 -172.7,161.27 -259.3,395.74 -193.1,627.55 29.2,102.88 87.3,199.29 170.9,267 108.7,87.94 248.7,110.31 384.5,114.45 122.3,3.69 245.1,-5.04 366.9,10.54 88.8,11.38 175.6,35.7 257.8,70.87 -4.6,7.37 -9,14.87 -13.7,22.25 -26.8,-11.39 -54.2,-21.73 -82,-30.66 -250.9,-80.24 -519.4,-2.45 -768.2,-81.92 -194.4,-62.08 -323.8,-236.09 -356.7,-434.15 -34.3,-207.24 43.5,-409.51 188.5,-558.04 165.4,-169.35 394.7,-254.9 628.4,-267.31" /></g><g
         transform="scale(1.27136)"
         id="g40"><path
           id="path42"
           style="fill:#ffffff;fill-opacity:1;fill-rule:nonzero;stroke:none"
           d="m 15872.3,2434.65 c -141.5,336.8 -282.9,673.69 -424.4,1010.57 -99,235.65 -203.1,492.62 -416.5,648.68 -225.5,164.7 -532.2,164.7 -784,63.95 -267.6,-107.13 -480.1,-314.87 -661.5,-532.82 -361.4,-434.11 -620.6,-949.85 -764.5,-1495.49 -61.7,-233.93 -102,-473.04 -120.4,-713.73 h 32.3 c 54.5,704.84 297.7,1395.05 709.7,1972.7 168.5,236.2 364.8,470.91 609.5,631.37 251.4,164.87 587.6,244.31 868.8,104.3 256.8,-127.9 378.7,-408.15 484.1,-658.51 131.7,-312.66 262.8,-625.55 394.1,-938.37 155.5,-370.47 311.1,-740.94 466.7,-1111.49 h 33.8 c -142.5,339.64 -285.1,679.2 -427.7,1018.84" /></g><g
         transform="scale(1.22926)"
         id="g44"><path
           id="path46"
           style="fill:#f0f6ff;fill-opacity:1;fill-rule:nonzero;stroke:none"
           d="m 14765.5,6940.94 c -162.1,0 -320.8,14.56 -466.1,41.41 49.9,113.23 81.9,236.32 92.2,365.99 l 105,1312.06 c 154,-40.4 296,-51.33 435.5,-51.33 33.3,0 66.4,0.62 99.5,1.62 130.6,3.92 261.1,13.6 399.3,13.6 83.5,0 169.8,-3.54 260.7,-14.03 341.8,-39.44 531.9,-205.78 555.3,-563.21 53.1,-809.02 -749.3,-1106.11 -1481.4,-1106.11" /></g><g
         transform="scale(1.34571)"
         id="g48"><path
           id="path50"
           style="fill:#ffb900;fill-opacity:1;fill-rule:nonzero;stroke:none"
           d="m 16300,10680.1 c -187.1,64.8 -315.1,177.2 -459.2,341.9 l 61,130 c 151.3,-200.4 201,-309 390.2,-293.3 l 8,-178.6" /></g><g
         transform="scale(1.52965)"
         id="g52"><path
           id="path54"
           style="fill:#007bff;fill-opacity:1;fill-rule:nonzero;stroke:none"
           d="m 16230.3,6862.63 c -122.5,159.3 -177.2,322.86 -222.6,537.67 l 104.5,69.27 c 35.9,-247.65 29.3,-363.16 187.8,-459.09 l -69.7,-147.85" /></g><g
         transform="scale(1.1381)"
         id="g56"><path
           id="path58"
           style="fill:#14cca1;fill-opacity:1;fill-rule:nonzero;stroke:none"
           d="m 16300,12050.1 c -233,-57.9 -426.9,-24.6 -664.4,53.6 l -0.5,180.5 c 263.4,-111.5 371.4,-193.9 566,-48.5 l 98.9,-185.6" /></g><path
         id="path60"
         style="fill:#ff5c33;fill-opacity:1;fill-rule:nonzero;stroke:none"
         d="m 11733.3,14550.2 c -125.4,-178.2 -266.2,-273.5 -455.7,-366.1 l -81.3,117 c 221.2,86.5 328.3,98.2 389.4,310 l 147.6,-60.9" /><path
         id="path62"
         style="fill:#007bff;fill-opacity:1;fill-rule:nonzero;stroke:none"
         d="m 7371.23,9362.2 c -297.87,-15 -520.93,67.4 -783.13,212 l 54.04,210.4 c 283.19,-189.2 388.19,-309.5 666.12,-184 l 62.97,-238.4" /><path
         id="path64"
         style="fill:#14cca1;fill-opacity:1;fill-rule:nonzero;stroke:none"
         d="m 7914.42,14468.4 c -227.26,165.2 -346.3,367.8 -460.12,646 l 154.74,144.9 c 104.86,-328.4 116.34,-492.3 389.36,-552.6 l -83.98,-238.3" /><path
         id="path66"
         style="fill:#007bff;fill-opacity:1;fill-rule:nonzero;stroke:none"
         d="m 9274.34,12646 c -257.54,-179.8 -500.48,-232.1 -811.57,-251.6 l -64.34,215.2 c 353.68,-8 511.63,-55 692.29,210.8 l 183.62,-174.4" /><g
         transform="scale(1.09121)"
         id="g68"><path
           id="path70"
           style="fill:#ffb900;fill-opacity:1;fill-rule:nonzero;stroke:none"
           d="m 11878.8,16132.9 c -236.7,-139.2 -453.6,-167.3 -728.5,-161.4 l -44.8,194.2 c 310.9,-33.2 447.5,-86.3 621.2,134.3 l 152.1,-167.1" /></g><g
         transform="scale(1.08614)"
         id="g72"><path
           id="path74"
           style="fill:#14cca1;fill-opacity:1;fill-rule:nonzero;stroke:none"
           d="m 15304.4,15725.9 c -198.1,97.8 -326.4,239.3 -466.8,440.4 l 80.7,133.7 c 144.6,-241.3 187.3,-367.4 396.3,-377.3 l -10.2,-196.8" /></g><g
         transform="scale(1.25588)"
         id="g76"><path
           id="path78"
           style="fill:#ff5c33;fill-opacity:1;fill-rule:nonzero;stroke:none"
           d="m 15904.5,12931.4 c 187.6,110.5 291.7,254.7 395.5,455.7 l -114.7,116.4 c -99.3,-238.7 -116.6,-360.2 -335,-390 l 54.2,-182.1" /></g><path
         id="path80"
         style="fill:#fd7555;fill-opacity:1;fill-rule:nonzero;stroke:none"
         d="m 12217.8,8785.1 c -46.3,27.6 -89.2,56.9 -129.4,88.3 20.9,58.4 40.7,117.1 59.5,176.1 28.8,-9.9 61.1,-17.3 97.6,-22.1 l -27.7,-242.3 m -162.5,115 c -149.3,125 -262.1,280.4 -380.8,477.9 l 110.1,157 c 127.1,-248.7 180.5,-401 325.8,-470.2 -4.5,-14.4 -9.1,-28.8 -13.8,-43.2 -13.2,-40.7 -27,-81.2 -41.3,-121.5" /><path
         id="path82"
         style="fill:#ff7755;fill-opacity:1;fill-rule:nonzero;stroke:none"
         d="m 12088.4,8873.4 c -11.3,8.7 -22.3,17.6 -33.1,26.7 14.3,40.3 28.1,80.8 41.3,121.5 4.7,14.4 9.3,28.8 13.8,43.2 11.9,-5.6 24.3,-10.7 37.5,-15.3 -18.8,-59 -38.6,-117.7 -59.5,-176.1" /><g
         transform="scale(1.23152)"
         id="g84"><path
           id="path86"
           style="fill:#ff5c33;fill-opacity:1;fill-rule:nonzero;stroke:none"
           d="m 16300,8862.01 c -76.7,-239.07 -195.2,-397.45 -365.6,-573.08 l -121.6,89.22 c 205.7,182.38 314.6,238.95 313.5,486.64 l 173.7,-2.78" /></g><path
         id="path88"
         style="fill:#ff5c33;fill-opacity:1;fill-rule:nonzero;stroke:none"
         d="m 10420,15786.7 c 0,-55.2 -44.8,-100 -100,-100 -55.2,0 -100,44.8 -100,100 0,55.2 44.8,100 100,100 55.2,0 100,-44.8 100,-100" /><g
         transform="scale(1.12679)"
         id="g90"><path
           id="path92"
           style="fill:#ffb900;fill-opacity:1;fill-rule:nonzero;stroke:none"
           d="m 16300,14010.3 c 0,-49 -39.8,-88.7 -88.7,-88.7 -49.1,0 -88.8,39.7 -88.8,88.7 0,49 39.7,88.8 88.8,88.8 48.9,0 88.7,-39.8 88.7,-88.8" /></g><g
         transform="scale(1.28712)"
         id="g94"><path
           id="path96"
           style="fill:#ff5c33;fill-opacity:1;fill-rule:nonzero;stroke:none"
           d="m 16300,9898.12 c 0,-42.91 -34.8,-77.7 -77.7,-77.7 -42.9,0 -77.7,34.79 -77.7,77.7 0,42.91 34.8,77.69 77.7,77.69 42.9,0 77.7,-34.78 77.7,-77.69" /></g><path
         id="path98"
         style="fill:#14cca1;fill-opacity:1;fill-rule:nonzero;stroke:none"
         d="m 10580,11726.7 c 0,-55.2 -44.8,-100 -100,-100 -55.2,0 -100,44.8 -100,100 0,55.2 44.8,100 100,100 55.2,0 100,-44.8 100,-100" /><path
         id="path100"
         style="fill:#ffb900;fill-opacity:1;fill-rule:nonzero;stroke:none"
         d="m 6120.94,12603.3 -200,-200 -200,200 200,200 200,-200" /><g
         transform="scale(1.44101)"
         id="g102"><path
           id="path104"
           style="fill:#14cca1;fill-opacity:1;fill-rule:nonzero;stroke:none"
           d="m 16300,8973.53 -138.8,-138.8 -138.8,138.8 138.8,138.79 138.8,-138.79" /></g><g
         transform="scale(1.00583)"
         id="g106"><path
           id="path108"
           style="fill:#ffb900;fill-opacity:1;fill-rule:nonzero;stroke:none"
           d="m 16300,5772.22 -1675,-2.08 -0.5,391.21 c -0.1,138.1 111.7,250.24 249.8,250.44 l 1174.8,1.39 c 138.2,0.2 250.2,-111.65 250.4,-249.84 l 0.5,-391.12" /></g><path
         id="path110"
         style="fill:#ffb900;fill-opacity:1;fill-rule:nonzero;stroke:none"
         d="m 16097.5,6225.1 h -1090 v 1930 h 1090 v -1930" /><path
         id="path112"
         style="fill:#e8950c;fill-opacity:1;fill-rule:nonzero;stroke:none"
         d="m 15007.5,7321 v 834.1 h 1090 l -1.1,-405.1 -1088.9,-429" /><g
         transform="scale(1.18622)"
         id="g114"><path
           id="path116"
           style="fill:#ffb900;fill-opacity:1;fill-rule:nonzero;stroke:none"
           d="m 14691,8129.6 -58.6,193.72 c 1076,325.62 1532.2,998.67 1394.7,2057.58 -1.5,1.6 -12.9,8.2 -26.9,4.4 l -148.1,-40.1 c -59.3,-16 -99.1,-60.4 -99.1,-110.4 v -229.5 c 0,-139.2 -117.5,-250.54 -267.5,-253.42 -155.1,-2.98 -420.3,-7.99 -455.7,-7.99 v 202.33 c 24.2,0 193.1,2.98 451.8,7.96 37.4,0.7 69,24.15 69,51.12 v 229.5 c 0,142.6 99.9,265.5 248.7,305.7 l 148.1,40.1 c 65.1,17.6 134.2,6.6 189.6,-30.4 50.2,-33.5 83.2,-85.7 90.8,-143.2 72.2,-556.66 -8.8,-1026.44 -241,-1396.32 -251.2,-400.42 -687.2,-696.88 -1295.8,-881.08" /></g><path
         id="path118"
         style="fill:#ffb900;fill-opacity:1;fill-rule:nonzero;stroke:none"
         d="m 13676,9643.5 c -721.9,218.5 -1239.1,570.2 -1537.1,1045.2 -275.4,438.7 -371.5,996 -285.8,1656.3 8.9,68.2 48.1,130.2 107.7,169.9 65.7,43.9 147.6,56.9 224.9,36 l 175.7,-47.5 c 176.4,-47.7 294.9,-193.5 294.9,-362.7 v -272.1 c 0,-32.1 37.5,-59.9 81.9,-60.7 306.8,-6 507.2,-9.5 535.9,-9.5 v -240 c -41.9,0 -356.6,6 -540.5,9.5 -177.9,3.4 -317.3,135.5 -317.3,300.7 v 272.1 c 0,59.4 -47.3,112 -117.6,131 l -175.7,47.5 c -16.7,4.6 -30.2,-3.3 -32.5,-7.1 -162.5,-1254.2 378.7,-2052.5 1655,-2438.8 l -69.5,-229.8" /><g
         transform="scale(1.10254)"
         id="g120"><path
           id="path122"
           style="fill:#ffb900;fill-opacity:1;fill-rule:nonzero;stroke:none"
           d="m 16282.2,11146.8 -236.5,-2953.9 c -28.3,-354.09 -201,-664.65 -457.5,-875.43 -218.8,-179.95 -498.9,-287.34 -802.5,-287.34 h -1359.4 c -658.9,0 -1207.1,506.1 -1259.7,1162.77 l -122.6,1532.85 -113.9,1421.05 c -17.8,222.4 157.8,412.9 381.3,412.9 h 3589.5 c 223.1,0 399.1,-190.5 381.3,-412.9" /></g><g
         transform="scale(1.05439)"
         id="g124"><path
           id="path126"
           style="fill:#e8950c;fill-opacity:1;fill-rule:nonzero;stroke:none"
           d="m 16300,7651.61 c -228.8,-188.17 -521.6,-300.46 -839.2,-300.46 h -1421.4 c -689,0 -1262.2,529.22 -1317.2,1215.87 L 12594,10169.9 c 900.2,-1137.78 2335.7,-2113.89 3706,-2518.29" /></g><g
         transform="scale(1.00397)"
         id="g128"><path
           id="path130"
           style="fill:#001f40;fill-opacity:1;fill-rule:nonzero;stroke:none"
           d="m 16300,7700.43 h -1555.5 v 39.85 H 16300 v -39.85" /></g><path
         id="path132"
         style="fill:#001f40;fill-opacity:1;fill-rule:nonzero;stroke:none"
         d="m 15251.4,6429.2 h -290.3 v 40 h 290.3 v -40" /><path
         id="path134"
         style="fill:#001f40;fill-opacity:1;fill-rule:nonzero;stroke:none"
         d="m 16151.4,6429.2 h -290.3 v 40 h 290.3 v -40" /><g
         transform="scale(1.0299)"
         id="g136"><path
           id="path138"
           style="fill:#ffb900;fill-opacity:1;fill-rule:nonzero;stroke:none"
           d="m 16300,4712.32 -2397.8,-2.91 -0.8,633.46 c -0.3,236.24 191,428 427.2,428.3 l 1542.3,1.84 c 236.3,0.29 428,-190.99 428.3,-427.22 l 0.8,-633.47" /></g><g
         transform="scale(1.00576)"
         id="g140"><path
           id="path142"
           style="fill:#e8950c;fill-opacity:1;fill-rule:nonzero;stroke:none"
           d="m 16300,5886.09 h -1672.9 v 39.77 H 16300 v -39.77" /></g><g
         id="g144"><g
           clip-path="url(#clipPath150)"
           id="g146"><g
             transform="scale(1.04641)"
             id="g152"><path
               id="path154"
               style="fill:#ffe399;fill-opacity:1;fill-rule:nonzero;stroke:none"
               d="m 15879.5,11248.1 h 420.5 v -821.9 h -420.5" /></g></g></g><g
         transform="scale(1.32598)"
         id="g156"><path
           id="path158"
           style="fill:#ffffff;fill-opacity:1;fill-rule:nonzero;stroke:none"
           d="M 16300,1352.58 H 7163.98 v 776.64 H 16300 v -776.64" /></g><g
         transform="scale(1.20317)"
         id="g160"><path
           id="path162"
           style="fill:#ffffff;fill-opacity:1;fill-rule:nonzero;stroke:none"
           d="M 16300,2346.55 H 9558.98 v 855.82 H 16300 v -855.82" /></g><g
         transform="scale(1.11711)"
         id="g164"><path
           id="path166"
           style="fill:#ffffff;fill-opacity:1;fill-rule:nonzero;stroke:none"
           d="m 16300,3449.08 h -4748.9 v 921.84 H 16300 v -921.84" /></g><g
         transform="scale(1.13745)"
         id="g168"><path
           id="path170"
           style="fill:#ff5c33;fill-opacity:1;fill-rule:nonzero;stroke:none"
           d="m 16300,2482.05 v -905.19 h -5246.8 v 905.19 H 16300" /></g><g
         transform="scale(1.08474)"
         id="g172"><path
           id="path174"
           style="fill:#ff5c33;fill-opacity:1;fill-rule:nonzero;stroke:none"
           d="M 16300,3552.2 V 2602.66 H 12382.4 V 3552.2 H 16300" /></g><g
         transform="scale(1.03067)"
         id="g176"><path
           id="path178"
           style="fill:#ff5c33;fill-opacity:1;fill-rule:nonzero;stroke:none"
           d="m 16300,4737.48 v -998.96 h -2413.2 v 998.96 H 16300" /></g><path
         id="path180"
         style="fill:#e5ebf2;fill-opacity:1;fill-rule:nonzero;stroke:none"
         d="m 12904,3853.6 h 1408.8 v 240 H 12904 Z" /><g
         transform="scale(1.1171)"
         id="g182"><path
           id="path184"
           style="fill:#e5ebf2;fill-opacity:1;fill-rule:nonzero;stroke:none"
           d="m 16300,3449.63 h -1261.1 v 214.85 H 16300 v -214.85" /></g><g
         transform="scale(1.03067)"
         id="g186"><path
           id="path188"
           style="fill:#c8482c;fill-opacity:1;fill-rule:nonzero;stroke:none"
           d="m 16300,3738.91 h -2413.2 v 232.86 H 16300 v -232.86" /></g><path
         id="path190"
         style="fill:#e5ebf2;fill-opacity:1;fill-rule:nonzero;stroke:none"
         d="m 11501.2,2824.8 h 1930.4 v 240 h -1930.4 z" /><g
         transform="scale(1.20317)"
         id="g192"><path
           id="path194"
           style="fill:#e5ebf2;fill-opacity:1;fill-rule:nonzero;stroke:none"
           d="m 16300,2347.81 h -1604.4 v 199.47 H 16300 v -199.47" /></g><g
         transform="scale(1.08474)"
         id="g196"><path
           id="path198"
           style="fill:#c8482c;fill-opacity:1;fill-rule:nonzero;stroke:none"
           d="m 16300,2604.14 h -3917.6 v 221.25 H 16300 v -221.25" /></g><path
         id="path200"
         style="fill:#e5ebf2;fill-opacity:1;fill-rule:nonzero;stroke:none"
         d="m 9499.2,1793.6 h 0.1016 v 6.3984 H 9499.2 Z" /><path
         id="path202"
         style="fill:#d8e3f2;fill-opacity:1;fill-rule:nonzero;stroke:none"
         d="m 9499.2,1800 h 0.1016 v 233.602 H 9499.2 Z" /><path
         id="path204"
         style="fill:#e5ebf2;fill-opacity:1;fill-rule:nonzero;stroke:none"
         d="M 12572.4,1793.6 H 9499.3 v 240 h 3073.1 v -240" /><g
         transform="scale(1.32599)"
         id="g206"><path
           id="path208"
           style="fill:#e5ebf2;fill-opacity:1;fill-rule:nonzero;stroke:none"
           d="m 16300,1352.65 h -0.1 v 4.83 h 0.1 v -4.83" /></g><g
         transform="scale(1.32599)"
         id="g210"><path
           id="path212"
           style="fill:#d8e3f2;fill-opacity:1;fill-rule:nonzero;stroke:none"
           d="m 16300,1357.48 h -0.1 v 176.17 h 0.1 v -176.17" /></g><g
         transform="scale(1.32598)"
         id="g214"><path
           id="path216"
           style="fill:#e5ebf2;fill-opacity:1;fill-rule:nonzero;stroke:none"
           d="m 16300,1352.66 h -2317.6 v 181 H 16300 v -176.18 -4.82" /></g><g
         transform="scale(1.13745)"
         id="g218"><path
           id="path220"
           style="fill:#c8482c;fill-opacity:1;fill-rule:nonzero;stroke:none"
           d="m 16300,1576.86 h -5246.8 v 211 H 16300 v -211" /></g><path
         id="path222"
         style="fill:#95beff;fill-opacity:1;fill-rule:nonzero;stroke:none"
         d="m 9519.3,1793.5 h -40 v 1049.8 l 2001.9,1.5 -0.1,1028.2 1402.9,0.6 -0.1,1029.2 H 14303 v -40 h -1379.1 l 0.1,-1029.2 -1402.9,-0.6 0.1,-1028.2 -2001.9,-1.5 V 1793.5" /><g
         transform="scale(1.32721)"
         id="g224"><path
           id="path226"
           style="fill:#95beff;fill-opacity:1;fill-rule:nonzero;stroke:none"
           d="m 16300,1351.33 h -30.1 v 760.85 l -1508.4,1.13 0.1,774.71 -1057,0.45 v 775.46 h -1056.3 v 30.14 h 1086.5 l -0.1,-775.46 1057,-0.46 -0.1,-774.7 1508.4,-1.13 v -790.99" /></g><path
         id="path228"
         style="fill:#001f40;fill-opacity:1;fill-rule:nonzero;stroke:none"
         d="m 15302.7,11849.2 -149.2,-494.1 582.2,-183.5 -194.4,325.2 57.1,285.6 -295.7,66.8" /><path
         id="path230"
         style="fill:#ffffff;fill-opacity:1;fill-rule:nonzero;stroke:none"
         d="m 15432.5,11421 -17.7,35.9 117.7,57.9 17.7,-35.9 -117.7,-57.9" /><path
         id="path232"
         style="fill:#007bff;fill-opacity:1;fill-rule:nonzero;stroke:none"
         d="m 15199.7,13393.4 409.5,-39.3 c 84.2,-8.1 166.7,-35.7 233.5,-87.5 130.1,-100.8 181.4,-257.8 153.3,-417.8 -7.3,-41.5 -16.1,-79.9 -22.5,-112.5 l -335.1,-1188.6 -508.2,271.1 226.8,885.3 -516.1,15.9 -281.4,590.2 101.6,470.5 538.6,-387.3" /><path
         id="path234"
         style="fill:#001f40;fill-opacity:1;fill-rule:nonzero;stroke:none"
         d="m 15129,11317.1 -126.7,-541.6 638.8,-157.6 -231.3,336.5 41.8,311 -322.6,51.7" /><path
         id="path236"
         style="fill:#ffffff;fill-opacity:1;fill-rule:nonzero;stroke:none"
         d="m 15297.1,10866.8 -19.9,34.6 122.6,70.3 19.9,-34.6 -122.6,-70.3" /><path
         id="path238"
         style="fill:#007bff;fill-opacity:1;fill-rule:nonzero;stroke:none"
         d="m 14582.9,12712.1 438.6,-1600.2 492.6,55.8 -288.1,1695.9 c -27.8,147.8 -34.1,238.6 -260.4,351.3 l -242.3,134.4 -62.2,431.4 -367.4,-239.2 -59.5,-562.1 c -14.4,-136.1 87.1,-256.2 221.2,-261.9 l 127.5,-5.4" /><path
         id="path240"
         style="fill:#ffffff;fill-opacity:1;fill-rule:nonzero;stroke:none"
         d="m 15221.3,13401.7 -730.7,-83 c -81.5,-9.3 -155.3,49.1 -164.9,130.7 l -127.4,1082 609.1,148.5 646.3,-96.5 -118.6,-1067.6 c -6.7,-59.9 -53.9,-107.3 -113.8,-114.1" /><path
         id="path242"
         style="fill:#ffba9a;fill-opacity:1;fill-rule:nonzero;stroke:none"
         d="m 13701.5,15824.5 c 0,0 56.8,279 12.7,268.8 -44,-10.3 -89.3,-117.3 -89.3,-117.3 0,0 -96.6,232 -133.6,229.7 -37.1,-2.4 -25.9,-61.2 -25.9,-61.2 0,0 -69.1,32.9 -87.1,-35.3 0,0 -69.1,32.9 -68.5,-93.6 0.2,-46 37.1,-205.9 84,-390.6 l 331,125.8 -23.3,73.7" /><path
         id="path244"
         style="fill:#003e80;fill-opacity:1;fill-rule:nonzero;stroke:none"
         d="m 13956.4,15110 -231.6,640.8 -331,-125.8 c 58,-228.3 131.2,-494.6 169.3,-631.6 16.8,-60.3 47.1,-115.6 88.8,-162.3 l 664.5,-791.1 286.7,406.7 -646.7,663.3" /><path
         id="path246"
         style="fill:#974245;fill-opacity:1;fill-rule:nonzero;stroke:none"
         d="m 13580.8,15848.6 c -32.7,38.8 -30,76.1 8.3,110.8 l 6.7,-7.4 c -34,-30.9 -36.4,-62.6 -7.3,-97 l -7.7,-6.4" /><path
         id="path248"
         style="fill:#974245;fill-opacity:1;fill-rule:nonzero;stroke:none"
         d="m 13498.8,16007.7 -47.3,136.5 9.4,3.3 47.4,-136.5 -9.5,-3.3" /><path
         id="path250"
         style="fill:#974245;fill-opacity:1;fill-rule:nonzero;stroke:none"
         d="m 13428,15987.6 -41.8,124.6 9.4,3.1 41.9,-124.6 -9.5,-3.1" /><path
         id="path252"
         style="fill:#974245;fill-opacity:1;fill-rule:nonzero;stroke:none"
         d="m 13383.2,15952.5 -52.3,143.5 9.4,3.5 52.3,-143.6 -9.4,-3.4" /><g
         transform="scale(1.0045)"
         id="g254"><path
           id="path256"
           style="fill:#ffba9a;fill-opacity:1;fill-rule:nonzero;stroke:none"
           d="m 16198,16145 c -7.5,125.8 -92.4,100.2 -92.4,100.2 -16.6,54.8 -70.4,18.2 -70.4,18.2 0,0 2.8,36.6 -34.1,36.6 -37,0 -113.7,-214.1 -113.7,-214.1 0,0 -51.8,103.5 -96.2,110.9 -44.4,7.4 29.6,-266.2 29.6,-266.2 l -21.3,-86 334.8,-117.9 c 37.3,197 66.5,370.6 63.7,418.3" /></g><path
         id="path258"
         style="fill:#003e80;fill-opacity:1;fill-rule:nonzero;stroke:none"
         d="m 15870.6,15915.9 -194.2,-655.9 -560,-746.6 320,-333.4 567.8,834 c 38.7,49.2 65.5,106.3 78.4,167.6 28.3,134 81.6,390.3 124.3,615.9 l -336.3,118.4" /><path
         id="path260"
         style="fill:#974245;fill-opacity:1;fill-rule:nonzero;stroke:none"
         d="m 16014.1,16032.8 -8.2,5.6 c 25.2,37.3 19.4,68.6 -17.7,95.6 l 5.9,8.1 c 41.7,-30.4 48.5,-67.2 20,-109.3" /><g
         transform="scale(1.00263)"
         id="g262"><path
           id="path264"
           style="fill:#974245;fill-opacity:1;fill-rule:nonzero;stroke:none"
           d="m 16036.6,16157.3 -9.8,2.3 32.5,140.4 9.8,-2.3 -32.5,-140.4" /></g><g
         transform="scale(1.00109)"
         id="g266"><path
           id="path268"
           style="fill:#974245;fill-opacity:1;fill-rule:nonzero;stroke:none"
           d="m 16133.7,16169.7 -9.8,2.1 28.3,128.2 9.8,-2.1 -28.3,-128.2" /></g><g
         transform="scale(1.00048)"
         id="g270"><path
           id="path272"
           style="fill:#974245;fill-opacity:1;fill-rule:nonzero;stroke:none"
           d="m 16191.8,16149.4 -9.7,2.3 36.6,148.3 9.7,-2.4 -36.6,-148.2" /></g><path
         id="path274"
         style="fill:#ffba9a;fill-opacity:1;fill-rule:nonzero;stroke:none"
         d="m 14798.6,14500.5 v 0 c -69.9,0 -126.7,56.7 -126.7,126.7 v 224.9 h 253.4 v -224.9 c 0,-70 -56.7,-126.7 -126.7,-126.7" /><path
         id="path276"
         style="fill:#001f40;fill-opacity:1;fill-rule:nonzero;stroke:none"
         d="m 14922.5,14819.7 c -39.8,-141.5 -201.8,-147.4 -251.9,0 h 251.9" /><path
         id="path278"
         style="fill:#ffba9a;fill-opacity:1;fill-rule:nonzero;stroke:none"
         d="m 14985.6,14981.7 c 0,-120.4 -83.7,-218 -187,-218 -103.2,0 -186.9,97.6 -186.9,218 0,120.4 83.7,218 186.9,218 103.3,0 187,-97.6 187,-218" /><path
         id="path280"
         style="fill:#001f40;fill-opacity:1;fill-rule:nonzero;stroke:none"
         d="m 14627.5,14978 c 11,150.3 110.5,185.6 110.5,185.6 l 129.2,2.3 c 53.1,-39.8 98.2,-114.8 100.6,-193.4 l 44.2,2.2 c 27.5,146.9 3.3,290.6 -81.8,323.7 l 42,21 c -350.7,77.6 -437.5,-63 -395.5,-309.3 l 50.8,-32.1" /><path
         id="path282"
         style="fill:#ffba9a;fill-opacity:1;fill-rule:nonzero;stroke:none"
         d="m 14650.8,14992.1 c 14,-29.4 4.5,-63.2 -21.2,-75.4 -25.7,-12.2 -57.9,1.7 -71.9,31.1 -14,29.3 -4.5,63.1 21.3,75.3 25.7,12.3 57.9,-1.6 71.8,-31" /><path
         id="path284"
         style="fill:#001f40;fill-opacity:1;fill-rule:nonzero;stroke:none"
         d="m 14613.4,14955.2 c -6,16.9 -17.2,28.1 -34.2,34.1 l 3,8.4 c 19.7,-7 32.6,-19.9 39.5,-39.6 l -8.3,-2.9" /><path
         id="path286"
         style="fill:#ffba9a;fill-opacity:1;fill-rule:nonzero;stroke:none"
         d="m 14952.5,14992.1 c -14,-29.4 -4.4,-63.2 21.3,-75.4 25.7,-12.2 57.9,1.7 71.8,31.1 14,29.3 4.5,63.1 -21.2,75.3 -25.7,12.3 -57.9,-1.6 -71.9,-31" /><path
         id="path288"
         style="fill:#001f40;fill-opacity:1;fill-rule:nonzero;stroke:none"
         d="m 14990,14955.2 -8.3,2.9 c 6.9,19.7 19.8,32.6 39.5,39.6 l 2.9,-8.4 c -16.9,-6 -28.1,-17.2 -34.1,-34.1" /><path
         id="path290"
         style="fill:#003e80;fill-opacity:1;fill-rule:nonzero;stroke:none"
         d="m 14669,14646.6 c 130.3,-438.1 86.3,-1107.3 -62.2,-1608.4 l -527.4,-81.7 118.9,1574.9 470.7,115.2" /><path
         id="path292"
         style="fill:#003e80;fill-opacity:1;fill-rule:nonzero;stroke:none"
         d="m 14924,14661.6 c 40,-507.3 134.3,-1240.7 320.9,-1592.2 l 319.1,163.1 -110.3,1350.9 -529.7,78.2" /><path
         id="path294"
         style="fill:#001f40;fill-opacity:1;fill-rule:nonzero;stroke:none"
         d="m 15504.2,11166.1 c -2.8,17 -278.1,1703.3 -322.3,1846 -43.1,138.8 -321.4,252.5 -324.2,253.7 l 7.5,18.5 c 11.8,-4.7 289.9,-118.5 335.7,-266.3 44.8,-144 311.7,-1779.1 323.1,-1848.7 l -19.8,-3.2" /><path
         id="path296"
         style="fill:#001f40;fill-opacity:1;fill-rule:nonzero;stroke:none"
         d="m 14736.8,12127.3 -200,700 19.2,5.5 200,-700 -19.2,-5.5" /><path
         id="path298"
         style="fill:#001f40;fill-opacity:1;fill-rule:nonzero;stroke:none"
         d="m 15503,12680.1 -147,14 1.9,19.9 146.9,-14 -1.8,-19.9" /><path
         id="path300"
         style="fill:#001f40;fill-opacity:1;fill-rule:nonzero;stroke:none"
         d="m 8733.56,2258.7 -74.4,-472.5 h 636.14 l -249.25,249.3 18.6,234.4 -331.09,-11.2" /><path
         id="path302"
         style="fill:#ffffff;fill-opacity:1;fill-rule:nonzero;stroke:none"
         d="m 8929.71,1943.9 -20.28,34.4 126.49,74.4 20.27,-34.4 -126.48,-74.4" /><path
         id="path304"
         style="fill:#14cca1;fill-opacity:1;fill-rule:nonzero;stroke:none"
         d="m 10047.2,5696.4 c -9.4,-56.3 -18.3,-112.1 -28.6,-167.4 -17.4,-104.5 -35.67,-208 -54.42,-310.3 C 9897.22,4850.9 9824,4495.1 9744.54,4150.5 v -0.9 C 9586.06,3454.1 9404.82,2803.2 9204.83,2188.5 h -565.61 c 227.67,1086.5 448.2,2161.5 519.17,2993.6 10.73,122.3 17.86,239.7 21.44,350.9 l 867.37,163.4" /><path
         id="path306"
         style="fill:#001f40;fill-opacity:1;fill-rule:nonzero;stroke:none"
         d="m 10024.4,2281 -27.58,-485.7 678.48,-9.1 -269.4,249.3 20.1,234.4 -401.6,11.1" /><path
         id="path308"
         style="fill:#ffffff;fill-opacity:1;fill-rule:nonzero;stroke:none"
         d="m 10278.8,1943.5 -19.2,35.2 136.7,74.4 19.2,-35.2 -136.7,-74.4" /><path
         id="path310"
         style="fill:#14cca1;fill-opacity:1;fill-rule:nonzero;stroke:none"
         d="m 10499.9,2201 h -591.08 c -41.52,671.8 -91.96,1328.5 -164.28,1948.6 v 0.9 c -42.41,364.2 -91.96,716.5 -151.78,1051.3 -19.19,108 -39.73,214.2 -61.16,318.7 l 487,8.5 242.4,4 c 16.1,-99.1 31.3,-198.7 44.7,-298.7 137.5,-978.5 176.3,-2000.8 194.2,-3033.3" /><g
         id="g312"><g
           clip-path="url(#clipPath318)"
           id="g314"><path
             id="path320"
             style="fill:#249679;fill-opacity:1;fill-rule:nonzero;stroke:none"
             d="m 9158.39,5182.1 h 888.809 v 514.301 H 9158.39 Z" /></g></g><path
         id="path322"
         style="fill:#249679;fill-opacity:1;fill-rule:nonzero;stroke:none"
         d="m 9592.76,5201.8 v 0 c -19.19,108 -39.73,214.2 -61.16,318.7 l 487,8.5 v 0 l 242.4,4 c 16.1,-99.1 31.3,-198.7 44.7,-298.7 l -341.52,-15.6 -371.42,-16.9" /><path
         id="path324"
         style="fill:#001f40;fill-opacity:1;fill-rule:nonzero;stroke:none"
         d="m 9706.88,3893.6 -19.61,3.9 200.89,997 19.61,-4 -200.89,-996.9" /><path
         id="path326"
         style="fill:#007bff;fill-opacity:1;fill-rule:nonzero;stroke:none"
         d="m 9890.52,6879.1 c -299.44,-32.4 -544.06,-7.4 -782.18,136.1 l -231.68,-393.3 269.83,-241.3 -54.25,-851.1 c -3.19,-50.1 23.91,-97.2 68.8,-119.7 17.35,-8.7 36.47,-13.2 55.87,-13.2 h 1021.89 c 55.6,0 105.3,34.7 124.6,86.9 4.6,12.7 7.3,26 8,39.5 l 43.7,902.2 457.5,108.2 -105.5,360.4 c -348.6,-40.7 -663.1,-62.6 -876.58,-14.7" /><path
         id="path328"
         style="fill:#ffba9a;fill-opacity:1;fill-rule:nonzero;stroke:none"
         d="m 9108.4,7015.1 -231.69,-393.3 -320.97,287.1 c -7.14,6.2 -13.84,12.9 -20.53,19.6 -62.06,62.9 -105.8,141.9 -125,228.5 -2.68,11.2 -5.36,23.3 -7.59,35.3 -70.53,313 -204.01,922.3 -197.31,975.9 9.37,72.3 83.47,40.6 83.47,40.6 5.81,69.2 63.4,31.7 63.4,31.7 0,39.3 12.94,48.7 52.23,46.9 38.83,-2.3 91.06,-238.4 91.06,-238.4 0,0 57.59,122.8 100.45,113.4 42.85,-9 -37.06,-245.5 -37.06,-245.5 l 279.01,-684.4 c 91.07,-92 180.35,-162.9 270.53,-217.4" /><path
         id="path330"
         style="fill:#ffa785;fill-opacity:1;fill-rule:nonzero;stroke:none"
         d="m 8535.21,6928.5 v 0 c -62.06,62.9 -105.8,141.9 -125,228.5 -2.68,11.2 -5.36,23.3 -7.59,35.3 6.69,0.9 13.39,1.4 20.09,1.4 86.61,0 156.24,-70.1 156.24,-156.3 0,-42.4 -16.51,-80.8 -43.74,-108.9" /><path
         id="path332"
         style="fill:#974245;fill-opacity:1;fill-rule:nonzero;stroke:none"
         d="m 8445.33,7911.7 c -34.9,36.9 -34.26,74.2 1.94,111.1 l 7.14,-7 c -32.16,-32.8 -32.75,-64.6 -1.81,-97.2 l -7.27,-6.9" /><path
         id="path334"
         style="fill:#974245;fill-opacity:1;fill-rule:nonzero;stroke:none"
         d="m 8367.81,8141.1 -20.54,98.4 9.8,2 20.55,-98.4 -9.81,-2" /><path
         id="path336"
         style="fill:#974245;fill-opacity:1;fill-rule:nonzero;stroke:none"
         d="m 8308.4,8125.7 -24.4,81.6 9.57,2.9 24.4,-81.6 -9.57,-2.9" /><path
         id="path338"
         style="fill:#974245;fill-opacity:1;fill-rule:nonzero;stroke:none"
         d="m 8261.86,8103.6 -20.45,76.2 9.64,2.6 20.45,-76.2 -9.64,-2.6" /><path
         id="path340"
         style="fill:#ffba9a;fill-opacity:1;fill-rule:nonzero;stroke:none"
         d="m 11344,6786.1 c -4.4,-7.6 -9.3,-14.7 -13.8,-22.3 l -29.9,-44.7 c -40.6,-61.1 -102.2,-105.3 -172.8,-125 -3.5,-1.3 -7.6,-2.2 -11.6,-3.1 l -243.3,-57.6 -105.3,360.3 c 97.3,11.6 197.3,24.1 298.6,37.5 l 301.4,569.2 c 0,0 0,241.9 33.4,249 33.5,7.6 59.9,-141 59.9,-141 0,0 129.9,196.9 170.9,196.9 41.1,0 29.9,-55.9 29.9,-55.9 0,0 38,46.9 60.8,24.6 11.6,-11.6 9.8,-54 9.8,-54 0,0 15,14 44.5,1.6 57.2,-24 -124.9,-442.2 -432.5,-935.5" /><path
         id="path342"
         style="fill:#ffa785;fill-opacity:1;fill-rule:nonzero;stroke:none"
         d="m 11127.5,6594.1 c -6.2,16.5 -9.3,34 -9.3,52.3 0,86.6 70,156.2 156.2,156.2 25,0 48.7,-5.8 69.6,-16.5 -4.4,-7.6 -9.3,-14.7 -13.8,-22.3 l -29.9,-44.7 c -40.6,-61.1 -102.2,-105.3 -172.8,-125 v 0" /><path
         id="path344"
         style="fill:#974245;fill-opacity:1;fill-rule:nonzero;stroke:none"
         d="m 11486.5,7469.8 -5,8.7 c 38.9,22.6 47.4,53.3 25.8,93.8 l 8.8,4.7 c 24.3,-45.6 14.3,-81.6 -29.6,-107.2" /><path
         id="path346"
         style="fill:#974245;fill-opacity:1;fill-rule:nonzero;stroke:none"
         d="m 11622.1,7669.7 -8.8,4.8 47.5,88.6 8.8,-4.8 -47.5,-88.6" /><path
         id="path348"
         style="fill:#974245;fill-opacity:1;fill-rule:nonzero;stroke:none"
         d="m 11689.6,7643 -8.9,4.6 44.7,85.8 8.9,-4.6 -44.7,-85.8" /><path
         id="path350"
         style="fill:#974245;fill-opacity:1;fill-rule:nonzero;stroke:none"
         d="m 11733.4,7633.3 -8.5,5.3 41.2,67.3 8.5,-5.2 -41.2,-67.4" /><path
         id="path352"
         style="fill:#001f40;fill-opacity:1;fill-rule:nonzero;stroke:none"
         d="m 9283.32,6265.7 -413.32,346.7 12.85,15.3 413.32,-346.7 -12.85,-15.3" /><path
         id="path354"
         style="fill:#001f40;fill-opacity:1;fill-rule:nonzero;stroke:none"
         d="m 10409.7,6069.5 -19.9,1 30,576.7 19.9,-1 -30,-576.7" /><path
         id="path356"
         style="fill:#001f40;fill-opacity:1;fill-rule:nonzero;stroke:none"
         d="m 9891,6505.4 c -65.24,0 -131.7,29.3 -181.76,81 l 14.37,13.9 c 51.92,-53.6 122.44,-81 189.1,-73.7 56.43,6.4 104.39,37.9 135.19,88.6 l 17.1,-10.4 c -34,-56.1 -87.3,-91 -150.04,-98 -7.95,-0.9 -15.94,-1.4 -23.96,-1.4" /><path
         id="path358"
         style="fill:#ffba9a;fill-opacity:1;fill-rule:nonzero;stroke:none"
         d="m 9895.34,6667 v 0 c -79.75,-8.9 -151.64,48.5 -160.58,128.2 l -38.44,343 288.79,32.4 38.49,-343 c 8.9,-79.8 -48.51,-151.7 -128.26,-160.6" /><path
         id="path360"
         style="fill:#001f40;fill-opacity:1;fill-rule:nonzero;stroke:none"
         d="m 9792.8,7009.3 c 66.49,-76.3 141.83,-130.2 229.4,-153.3 l -20.7,185.2 -208.7,-31.9" /><path
         id="path362"
         style="fill:#ffba9a;fill-opacity:1;fill-rule:nonzero;stroke:none"
         d="m 10139.3,7380.4 c 0,0 55.5,-364.2 -71.6,-410.8 -118.72,-43.5 -274.9,39.7 -274.9,39.7 l -104.83,305.8 136.04,124 315.29,-58.7" /><path
         id="path364"
         style="fill:#001f40;fill-opacity:1;fill-rule:nonzero;stroke:none"
         d="m 9742.85,7202.6 c 7.33,69.7 34.67,129.9 105.58,169.5 206.87,-83.9 336.37,-19.8 429.27,114.2 0,0 -118.4,-25.4 -189.7,20.6 -71.3,46.1 -254.99,179.8 -371.08,-14 -162.35,-75.3 -127.94,-206.2 -62.28,-290.3 h 88.21" /><path
         id="path366"
         style="fill:#ffba9a;fill-opacity:1;fill-rule:nonzero;stroke:none"
         d="m 9776.18,7212.4 c 23.96,-41.4 14.3,-91.8 -21.57,-112.5 -35.86,-20.8 -84.36,-4.1 -108.32,37.2 -23.96,41.4 -14.31,91.8 21.56,112.6 35.87,20.7 84.37,4 108.33,-37.3" /><path
         id="path368"
         style="fill:#001f40;fill-opacity:1;fill-rule:nonzero;stroke:none"
         d="m 9723.5,7137.9 c -2.39,32.1 -15.98,54.1 -41.59,67.1 l 9.07,17.8 c 31.89,-16.2 49.55,-44.2 52.48,-83.4 l -19.96,-1.5" /><path
         id="path370"
         style="fill:#ffffff;fill-opacity:1;fill-rule:nonzero;stroke:none"
         d="m 9583.08,10246.7 c 382.92,0 693.32,-310.4 693.32,-693.3 0,-268.4 -152.8,-500.7 -375.83,-615.9 l 69.18,-357.5 -247.02,294.1 c -45.11,-9.2 -91.81,-14.1 -139.65,-14.1 -382.91,0 -693.33,310.4 -693.33,693.4 0,382.9 310.42,693.3 693.33,693.3" /><path
         id="path372"
         style="fill:#95beff;fill-opacity:1;fill-rule:nonzero;stroke:none"
         d="m 9730.39,8896.1 205.06,-244.1 -57.36,296.4 13.3,6.8 c 225.11,116.3 365.01,345.5 365.01,598.2 0,371.2 -302.02,673.3 -673.31,673.3 -371.29,0 -673.34,-302.1 -673.34,-673.3 0,-371.3 302.05,-673.4 673.34,-673.4 45.66,0 91.29,4.6 135.64,13.7 z m 273.61,-388 -289,344.1 c -43.28,-8.1 -87.6,-12.2 -131.91,-12.2 -393.34,0 -713.34,320 -713.34,713.4 0,393.3 320,713.3 713.34,713.3 393.34,0 713.31,-320 713.31,-713.3 0,-262.7 -142.6,-501.4 -373.39,-626.7 l 80.99,-418.6" /><path
         id="path374"
         style="fill:#95beff;fill-opacity:1;fill-rule:nonzero;stroke:none"
         d="m 9356.93,9537 c 0,-53.6 -43.39,-97 -96.93,-97 -53.52,0 -96.92,43.4 -96.92,97 0,53.5 43.4,96.9 96.92,96.9 53.54,0 96.93,-43.4 96.93,-96.9" /><path
         id="path376"
         style="fill:#95beff;fill-opacity:1;fill-rule:nonzero;stroke:none"
         d="m 9680,9537 c 0,-53.6 -43.39,-97 -96.92,-97 -53.52,0 -96.92,43.4 -96.92,97 0,53.5 43.4,96.9 96.92,96.9 53.53,0 96.92,-43.4 96.92,-96.9" /><path
         id="path378"
         style="fill:#95beff;fill-opacity:1;fill-rule:nonzero;stroke:none"
         d="m 10003.1,9537 c 0,-53.6 -43.41,-97 -96.94,-97 -53.53,0 -96.92,43.4 -96.92,97 0,53.5 43.39,96.9 96.92,96.9 53.53,0 96.94,-43.4 96.94,-96.9" /><g
         transform="scale(1.25237)"
         id="g380"><path
           id="path382"
           style="fill:#ff5c33;fill-opacity:1;fill-rule:nonzero;stroke:none"
           d="m 16173.3,6005.95 -333,-670.88 -235.1,-166.73 134.6,-174.23 c 61.5,26.83 120.5,52.94 165.7,73.07 55.9,24.91 106.1,61.24 147.4,106.59 l 247.1,271.81 -126.7,560.37" /></g><g
         transform="scale(1.20933)"
         id="g384"><path
           id="path386"
           style="fill:#ffba9a;fill-opacity:1;fill-rule:nonzero;stroke:none"
           d="m 16068.5,5286.97 c 0,0 -227.7,5.87 -220.5,-61.77 6.9,-64.08 153.4,-102.95 153.4,-102.95 0,0 -80.9,-87.81 -52.7,-89.3 23.3,-1.24 195.5,71.11 351.3,138.92 l -139.4,180.43 -92.1,-65.33" /></g><g
         transform="scale(1.29488)"
         id="g388"><path
           id="path390"
           style="fill:#001f40;fill-opacity:1;fill-rule:nonzero;stroke:none"
           d="m 16300,2615.15 -5.2,-426.68 h -504.7 l 234.1,208.13 26,239.4 249.8,-20.85" /></g><g
         transform="scale(1.28004)"
         id="g392"><path
           id="path394"
           style="fill:#ffffff;fill-opacity:1;fill-rule:nonzero;stroke:none"
           d="m 16278.4,2337.34 -79.3,75.78 21.6,22.58 79.3,-75.78 -21.6,-22.58" /></g><g
         transform="scale(1.35726)"
         id="g396"><path
           id="path398"
           style="fill:#001f40;fill-opacity:1;fill-rule:nonzero;stroke:none"
           d="m 15736.5,4102.3 377.4,152.73 186.1,-444.05 -269.5,129.23 -220.2,-65.36 -73.8,227.45" /></g><g
         transform="scale(1.33905)"
         id="g400"><path
           id="path402"
           style="fill:#ffffff;fill-opacity:1;fill-rule:nonzero;stroke:none"
           d="m 16262.5,3988.43 -27.8,10.68 37.4,97.98 27.9,-10.68 -37.5,-97.98" /></g><g
         transform="scale(1.2998)"
         id="g404"><path
           id="path406"
           style="fill:#007bff;fill-opacity:1;fill-rule:nonzero;stroke:none"
           d="m 15469.6,4796.9 394.5,-2245.12 435.9,15.31 -267.7,2508.24 -562.7,-278.43" /></g><g
         transform="scale(1.32187)"
         id="g408"><path
           id="path410"
           style="fill:#007bff;fill-opacity:1;fill-rule:nonzero;stroke:none"
           d="m 15476.5,4828.46 38.2,-1154.88 c 2.2,-67.33 41.8,-127.85 102.6,-156.82 53.4,-25.5 115.9,-23.15 167.3,6.2 l 515.4,295.04 -23.8,457.76 -293.1,-108.86 -1.4,711.87 -505.2,-50.31" /></g><g
         transform="scale(1.38668)"
         id="g412"><path
           id="path414"
           style="fill:#ff5c33;fill-opacity:1;fill-rule:nonzero;stroke:none"
           d="m 15757,5297.32 -393.7,230.63 c -41.5,24.37 -87.6,39.8 -135.4,45.43 l -253.9,29.93 -210.8,-65.99 c -123.8,-38.72 -210.6,-150 -218.3,-279.44 l -44.5,-761.53 734.4,154.4 58.6,526.86 423.6,-198.89 c 80.9,-40.24 179.2,-12.69 227.2,63.9 97,154.68 254.8,413 355.8,612.39 l -240.9,85.53 -302.1,-443.22" /></g><g
         transform="scale(1.3951)"
         id="g416"><path
           id="path418"
           style="fill:#ffba9a;fill-opacity:1;fill-rule:nonzero;stroke:none"
           d="m 16247.1,5904.1 c 0,0 11.9,31.76 -3.9,41.65 -15.9,9.96 -33.7,-7.89 -33.7,-7.89 0,0 17.8,43.65 -8,51.54 -25.8,7.95 -125,-136.84 -125,-136.84 0,0 -11.9,91.25 -37.6,89.24 -25.8,-2 -41.7,-184.5 -41.7,-184.5 l -35,-51.39 239.5,-85.02 c 58.8,116.05 98.3,212.03 95,255.47 -3.6,47.81 -49.6,27.74 -49.6,27.74" /></g><g
         transform="scale(1.37973)"
         id="g420"><path
           id="path422"
           style="fill:#974245;fill-opacity:1;fill-rule:nonzero;stroke:none"
           d="m 16266.9,5823.82 -4.4,5.8 c 25.9,19.86 29.2,42.62 10,69.8 l 5.8,4.2 c 21.7,-30.59 17.9,-57.4 -11.4,-79.8" /></g><g
         transform="scale(1.38825)"
         id="g424"><path
           id="path426"
           style="fill:#974245;fill-opacity:1;fill-rule:nonzero;stroke:none"
           d="m 16258.4,5918.38 -5.9,4.18 41.6,59.28 5.9,-4.18 -41.6,-59.28" /></g><g
         transform="scale(1.39104)"
         id="g428"><path
           id="path430"
           style="fill:#974245;fill-opacity:1;fill-rule:nonzero;stroke:none"
           d="m 16260.7,5879.57 -5.5,4.6 39.3,46.95 5.5,-4.61 -39.3,-46.94" /></g><g
         transform="scale(1.39277)"
         id="g432"><path
           id="path434"
           style="fill:#974245;fill-opacity:1;fill-rule:nonzero;stroke:none"
           d="m 16264.9,5844.41 -5.6,4.45 35.1,44.44 5.6,-4.38 -35.1,-44.51" /></g><g
         transform="scale(1.29115)"
         id="g436"><path
           id="path438"
           style="fill:#e8950c;fill-opacity:1;fill-rule:nonzero;stroke:none"
           d="m 16293.3,6337.31 c -6.8,-100.46 -93,-195.72 -202.9,-188.28 -109.8,7.35 -232.3,123.14 -225.5,223.52 6.7,100.45 120.2,152.42 230.2,148.86 154.3,-5.03 204.9,-83.73 198.2,-184.1" /></g><g
         transform="scale(1.28314)"
         id="g440"><path
           id="path442"
           style="fill:#ffba9a;fill-opacity:1;fill-rule:nonzero;stroke:none"
           d="m 16172.3,5915.2 v 0 c -57.7,3.9 -101.3,53.85 -97.5,111.6 l 16,237.62 209.2,-14.1 -16,-237.62 c -3.9,-57.75 -53.9,-101.4 -111.7,-97.5" /></g><g
         transform="scale(1.27799)"
         id="g444"><path
           id="path446"
           style="fill:#001f40;fill-opacity:1;fill-rule:nonzero;stroke:none"
           d="m 16300,6148 c -47.5,-50.16 -99.1,-88.19 -160.5,-96.95 l 8.6,113.69 151.9,-16.74" /></g><g
         transform="scale(1.28223)"
         id="g448"><path
           id="path450"
           style="fill:#ffba9a;fill-opacity:1;fill-rule:nonzero;stroke:none"
           d="m 16019.9,6407.42 c 0,0 -40.8,-269.85 51.4,-298.78 92.1,-28.93 206.3,29.32 206.3,29.32 l 22.4,204.02 -25.7,132.66 -254.4,-67.22" /></g><g
         transform="scale(1.28485)"
         id="g452"><path
           id="path454"
           style="fill:#e8950c;fill-opacity:1;fill-rule:nonzero;stroke:none"
           d="m 16263.5,6247.28 c -25.8,28.88 -51.4,76.74 -57.4,125.85 -66,-28.71 -146.4,-31.83 -238.4,-14.16 l 27.3,84.52 201.2,38.22 103.8,-29.65 -36.5,-204.78" /></g><g
         transform="scale(1.28826)"
         id="g456"><path
           id="path458"
           style="fill:#ffba9a;fill-opacity:1;fill-rule:nonzero;stroke:none"
           d="m 16281.1,6200.16 c -18.9,-23.99 -51,-30.2 -71.8,-13.9 -20.8,16.38 -22.2,49.06 -3.3,73.05 18.9,23.98 51.1,30.19 71.8,13.89 20.7,-16.38 22.2,-49.06 3.3,-73.04" /></g><g
         transform="scale(1.28541)"
         id="g460"><path
           id="path462"
           style="fill:#001f40;fill-opacity:1;fill-rule:nonzero;stroke:none"
           d="m 16266.9,6219.05 -15.5,1.09 c 2.8,39.99 27.7,49.17 48.1,49.79 l 0.5,-15.56 c -21.2,-0.62 -31.4,-11.51 -33.1,-35.32" /></g><g
         transform="scale(1.30006)"
         id="g464"><path
           id="path466"
           style="fill:#e8950c;fill-opacity:1;fill-rule:nonzero;stroke:none"
           d="m 16295.2,6459.16 c -4.7,-70.85 -66,-124.38 -136.8,-119.61 -70.9,4.77 -124.4,66.07 -119.6,136.91 4.8,70.77 66,124.38 136.8,119.61 70.9,-4.76 124.4,-66.07 119.6,-136.91" /></g><g
         transform="scale(1.23885)"
         id="g468"><path
           id="path470"
           style="fill:#001f40;fill-opacity:1;fill-rule:nonzero;stroke:none"
           d="m 16239.5,5036.43 -16.1,1.05 60.5,924.24 16.1,-1.05 -60.5,-924.24" /></g><g
         transform="scale(1.31797)"
         id="g472"><path
           id="path474"
           style="fill:#001f40;fill-opacity:1;fill-rule:nonzero;stroke:none"
           d="m 16293.1,5346.18 -330.1,166.92 6.9,13.51 330.1,-166.92 -6.9,-13.51" /></g><g
         transform="scale(1.28169)"
         id="g476"><path
           id="path478"
           style="fill:#001f40;fill-opacity:1;fill-rule:nonzero;stroke:none"
           d="m 16172.3,5811.17 c -6.3,0 -12.4,0.47 -18.5,1.56 -43.9,7.72 -77.2,41.98 -91.4,94.09 l 15.1,4.14 c 12.5,-46.03 41.3,-76.31 78.9,-82.86 45.1,-7.88 95.2,18.8 130.8,69.67 l 12.8,-8.97 c -34.4,-49.15 -82,-77.63 -127.7,-77.63" /></g><g
         transform="scale(1.29097)"
         id="g480"><path
           id="path482"
           style="fill:#001f40;fill-opacity:1;fill-rule:nonzero;stroke:none"
           d="m 16065.3,3577 c -24,0 -44.5,4.03 -61.3,9.69 -72.1,24.4 -106,85.2 -113.8,113.94 -31,113.25 -46.2,1012.03 -46.8,1050.22 l 15.5,0.23 c 0.1,-9.29 15.8,-935.03 46.2,-1046.35 8.2,-30.21 42.7,-82.72 103.9,-103.33 76.3,-25.87 173.6,4.26 281.6,86.76 l 9.4,-12.32 c -99.8,-76.22 -177.5,-98.84 -234.7,-98.84" /></g><g
         transform="scale(1.32015)"
         id="g484"><path
           id="path486"
           style="fill:#001f40;fill-opacity:1;fill-rule:nonzero;stroke:none"
           d="m 15776,4083.31 -5.2,14.32 524,190.81 5.2,-14.24 -524,-190.89" /></g><g
         transform="scale(1.35603)"
         id="g488"><path
           id="path490"
           style="fill:#ffffff;fill-opacity:1;fill-rule:nonzero;stroke:none"
           d="m 15788.7,8013.61 c -282.3,0 -511.2,-228.92 -511.2,-511.3 0,-197.9 112.6,-369.21 277.1,-454.17 l -51,-263.63 182.2,216.88 c 33.2,-6.78 67.7,-10.4 102.9,-10.4 282.4,0 511.3,228.9 511.3,511.32 0,282.38 -228.9,511.3 -511.3,511.3" /></g><g
         transform="scale(1.35726)"
         id="g492"><path
           id="path494"
           style="fill:#95beff;fill-opacity:1;fill-rule:nonzero;stroke:none"
           d="m 15774.5,7991.63 c -273.6,0 -496.2,-222.54 -496.2,-496.1 0,-186.16 103.1,-355.03 269,-440.72 l 9.8,-5.01 -42.3,-218.38 151.1,179.85 8.6,-1.77 c 32.7,-6.7 66.3,-10.09 100,-10.09 273.5,0 496,222.58 496,496.12 0,273.56 -222.5,496.1 -496,496.1 z m -310.2,-1266.23 59.6,308.41 c -169.9,92.32 -275.1,268.19 -275.1,461.72 0,289.8 235.8,525.57 525.7,525.57 289.7,0 525.5,-235.77 525.5,-525.57 0,-289.82 -235.8,-525.59 -525.5,-525.59 -32.7,0 -65.3,3.02 -97.2,8.98 l -213,-253.52" /></g><g
         transform="scale(1.29962)"
         id="g496"><path
           id="path498"
           style="fill:#95beff;fill-opacity:1;fill-rule:nonzero;stroke:none"
           d="m 16300,7830.27 c 0,-41.19 -33.4,-74.58 -74.6,-74.58 -41.1,0 -74.5,33.39 -74.5,74.58 0,41.19 33.4,74.58 74.5,74.58 41.2,0 74.6,-33.39 74.6,-74.58" /></g><g
         transform="scale(1.31944)"
         id="g500"><path
           id="path502"
           style="fill:#95beff;fill-opacity:1;fill-rule:nonzero;stroke:none"
           d="m 16300,7712.63 c 0,-40.57 -32.9,-73.45 -73.4,-73.45 -40.6,0 -73.5,32.88 -73.5,73.45 0,40.58 32.9,73.47 73.5,73.47 40.5,0 73.4,-32.89 73.4,-73.47" /></g><g
         transform="scale(1.33926)"
         id="g504"><path
           id="path506"
           style="fill:#95beff;fill-opacity:1;fill-rule:nonzero;stroke:none"
           d="m 16300,7598.48 c 0,-39.97 -32.4,-72.37 -72.4,-72.37 -40,0 -72.4,32.4 -72.4,72.37 0,39.97 32.4,72.38 72.4,72.38 40,0 72.4,-32.41 72.4,-72.38" /></g><g
         transform="scale(1.59509)"
         id="g508"><path
           id="path510"
           style="fill:#001f40;fill-opacity:1;fill-rule:nonzero;stroke:none"
           d="M 16300,1115.92 H 2858.77 V 1141 H 16300 v -25.08" /></g></g></g></svg>